HIERARCHY
ROOT Hips
{
	OFFSET 0.00000 0.00000 0.00000
	CHANNELS 6 Xposition Yposition Zposition Zrotation Yrotation Xrotation 
	JOINT LHipJoint
	{
		OFFSET 0 0 0
		CHANNELS 3 Zrotation Yrotation Xrotation
		JOINT LeftUpLeg
		{
			OFFSET 1.75344 -1.53157 0.77399
			CHANNELS 3 Zrotation Yrotation Xrotation
			JOINT LeftLeg
			{
				OFFSET 2.25415 -6.19323 0.00000
				CHANNELS 3 Zrotation Yrotation Xrotation
				JOINT LeftFoot
				{
					OFFSET 2.30342 -6.32861 0.00000
					CHANNELS 3 Zrotation Yrotation Xrotation
					JOINT LeftToeBase
					{
						OFFSET 0.10958 -0.30108 1.49206
						CHANNELS 3 Zrotation Yrotation Xrotation
						End Site
						{
							OFFSET 0.00000 -0.00000 0.77783
						}
					}
				}
			}
		}
	}
	JOINT RHipJoint
	{
		OFFSET 0 0 0
		CHANNELS 3 Zrotation Yrotation Xrotation
		JOINT RightUpLeg
		{
			OFFSET -1.81912 -1.53156 0.77399
			CHANNELS 3 Zrotation Yrotation Xrotation
			JOINT RightLeg
			{
				OFFSET -2.22882 -6.12365 0.00000
				CHANNELS 3 Zrotation Yrotation Xrotation
				JOINT RightFoot
				{
					OFFSET -2.21943 -6.09785 0.00000
					CHANNELS 3 Zrotation Yrotation Xrotation
					JOINT RightToeBase
					{
						OFFSET -0.18931 -0.52012 1.59379
						CHANNELS 3 Zrotation Yrotation Xrotation
						End Site
						{
							OFFSET -0.00000 -0.00000 0.84686
						}
					}
				}
			}
		}
	}
	JOINT LowerBack
	{
		OFFSET 0 0 0
		CHANNELS 3 Zrotation Yrotation Xrotation
		JOINT Spine
		{
			OFFSET -0.00200 1.66634 -0.14248
			CHANNELS 3 Zrotation Yrotation Xrotation
			JOINT Spine1
			{
				OFFSET -0.00875 1.64542 0.09514
				CHANNELS 3 Zrotation Yrotation Xrotation
				JOINT Neck
				{
					OFFSET 0 0 0
					CHANNELS 3 Zrotation Yrotation Xrotation
					JOINT Neck1
					{
						OFFSET 0.02257 1.59605 0.00839
						CHANNELS 3 Zrotation Yrotation Xrotation
						JOINT Head
						{
							OFFSET -0.10214 1.57530 -0.23335
							CHANNELS 3 Zrotation Yrotation Xrotation
							End Site
							{
								OFFSET -0.03588 1.60717 -0.08062
							}
						}
					}
				}
				JOINT LeftShoulder
				{
					OFFSET 0 0 0
					CHANNELS 3 Zrotation Yrotation Xrotation
					JOINT LeftArm
					{
						OFFSET 2.54983 1.10186 0.40078
						CHANNELS 3 Zrotation Yrotation Xrotation
						JOINT LeftForeArm
						{
							OFFSET 4.28840 -0.00000 0.00000
							CHANNELS 3 Zrotation Yrotation Xrotation
							JOINT LeftHand
							{
								OFFSET 3.06552 -0.00000 -0.00000
								CHANNELS 3 Zrotation Yrotation Xrotation
								JOINT LeftFingerBase
								{
									OFFSET 0 0 0
									CHANNELS 3 Zrotation Yrotation Xrotation
									JOINT LeftHandIndex1
									{
										OFFSET 0.75304 -0.00000 0.00000
										CHANNELS 3 Zrotation Yrotation Xrotation
										End Site
										{
											OFFSET 0.60712 -0.00000 0.00000
										}
									}
								}
								JOINT LThumb
								{
									OFFSET 0 0 0
									CHANNELS 3 Zrotation Yrotation Xrotation
									End Site
									{
										OFFSET 0.61639 -0.00000 0.61639
									}
								}
							}
						}
					}
				}
				JOINT RightShoulder
				{
					OFFSET 0 0 0
					CHANNELS 3 Zrotation Yrotation Xrotation
					JOINT RightArm
					{
						OFFSET -2.60909 1.35448 0.21802
						CHANNELS 3 Zrotation Yrotation Xrotation
						JOINT RightForeArm
						{
							OFFSET -4.52172 -0.00000 -0.00000
							CHANNELS 3 Zrotation Yrotation Xrotation
							JOINT RightHand
							{
								OFFSET -2.89140 -0.00000 0.00000
								CHANNELS 3 Zrotation Yrotation Xrotation
								JOINT RightFingerBase
								{
									OFFSET 0 0 0
									CHANNELS 3 Zrotation Yrotation Xrotation
									JOINT RightHandIndex1
									{
										OFFSET -0.68054 -0.00000 0.00000
										CHANNELS 3 Zrotation Yrotation Xrotation
										End Site
										{
											OFFSET -0.54867 -0.00000 0.00000
										}
									}
								}
								JOINT RThumb
								{
									OFFSET 0 0 0
									CHANNELS 3 Zrotation Yrotation Xrotation
									End Site
									{
										OFFSET -0.55705 -0.00000 0.55705
									}
								}
							}
						}
					}
				}
			}
		}
	}
}
MOTION
Frames: 14
Frame Time: .0083333
7.9533 15.4092 -29.1136 -172.3600 16.5425 -169.6500 0.0000 0.0000 0.0000 -17.2185 -18.5610 -11.9094 3.9109 12.0408 35.8766 2.2909 1.1151 -29.0580 1.6001 -7.9780 -22.6474 0.0000 0.0000 0.0000 30.0798 7.6579 -18.4316 -2.6663 -10.1341 29.4122 -0.2102 -15.7557 -24.3268 -0.2554 3.2515 -8.9796 -5.2973 1.7396 14.4280 -0.4899 1.3655 -1.5942 2.1525 0.9456 -9.9833 -3.4460 -0.1758 -6.5854 4.4875 -0.1989 5.9308 2.0778 0.0030 3.0992 0.0000 0.0000 0.0000 -77.1984 5.7140 28.2666 22.7422 -33.8056 -6.9943 -0.0000 -0.0000 11.8918 13.1780 -36.9450 -8.0107 -7.1250 0.0000 -0.0000 -10.9802 -7.0913 12.4698 0.0000 0.0000 0.0000 81.5623 -15.2891 57.6958 -29.7327 40.6632 -11.2351 0.0000 -0.0000 -12.5725 23.0240 -58.2799 -19.8744 7.1250 -0.0000 -0.0000 -25.4512 8.9478 -156.2735
7.9790 15.3985 -29.1735 -172.3740 16.9209 -169.9290 0.0000 0.0000 0.0000 -17.4821 -18.1458 -11.3291 3.9341 12.0721 35.9877 2.3333 0.9855 -29.2772 1.5059 -7.7506 -21.9590 0.0000 0.0000 0.0000 30.1314 7.5701 -17.5830 -2.5998 -10.0172 29.0323 -0.2010 -15.7838 -24.2818 -0.2504 3.2198 -8.8914 -5.1906 1.7852 13.7717 -0.4605 1.4877 -1.5619 2.1106 0.9895 -9.5754 -3.2210 0.2661 -5.3859 4.1916 0.3779 5.4645 1.9416 0.2722 2.6837 -0.0000 -0.0000 0.0000 -77.2972 6.3365 28.0050 22.8427 -33.9164 -7.0503 -0.0000 -0.0000 11.7550 12.8454 -36.7892 -7.7762 -7.1250 0.0000 -0.0000 -11.1383 -6.8829 12.6205 -0.0000 -0.0000 0.0000 81.5125 -15.4513 57.9158 -29.4915 40.4535 -11.0782 0.0000 -0.0000 -12.8038 23.6206 -58.3963 -20.4284 7.1250 -0.0000 -0.0000 -25.5975 8.8720 -156.0584
8.0038 15.3886 -29.2011 -172.7950 17.0895 -170.2570 0.0000 0.0000 0.0000 -17.9575 -17.8332 -11.0960 3.9595 12.1063 36.1092 2.3233 0.7603 -29.1364 1.4874 -7.7049 -21.8214 0.0000 0.0000 0.0000 29.8043 7.7795 -16.8469 -2.5288 -9.8901 28.6215 -0.2085 -15.9277 -24.5319 -0.1980 2.8656 -7.9047 -5.4527 1.8340 13.7508 -0.5384 1.5027 -1.6127 2.1702 1.0110 -9.6271 -3.4206 -0.0339 -5.8920 4.1656 -0.0068 6.1661 1.9697 0.0830 3.0351 0.0000 0.0000 0.0000 -77.2834 6.6697 27.9537 22.7604 -33.8258 -7.0045 -0.0000 -0.0000 11.5782 12.8067 -36.8054 -7.7552 -7.1250 0.0000 -0.0000 -11.1607 -6.8923 12.6484 0.0000 0.0000 0.0000 81.5525 -15.4629 57.9858 -29.1784 40.1787 -10.8757 0.0000 -0.0000 -12.9804 23.7625 -58.3389 -20.5432 7.1250 -0.0000 -0.0000 -25.6565 8.9424 -156.0292
8.0329 15.3862 -29.2368 -172.6950 17.0977 -170.0710 0.0000 0.0000 0.0000 -17.7383 -17.6064 -11.3161 4.0060 12.1683 36.3301 2.3203 0.6180 -29.0688 1.5655 -7.8954 -22.3967 0.0000 0.0000 0.0000 29.9806 7.9941 -16.4688 -2.4520 -9.7501 28.1712 -0.2256 -15.9692 -24.7335 -0.1463 2.4652 -6.7931 -5.1724 1.8102 13.2192 -0.5168 1.5484 -1.6559 2.0369 1.0126 -9.3623 -3.0837 0.2796 -5.4775 3.7684 0.4059 5.9366 1.7852 0.2773 2.8559 -0.0000 0.0000 0.0000 -77.2352 6.8228 27.7621 22.6601 -33.7150 -6.9487 -0.0000 -0.0000 11.7369 13.0875 -36.9901 -7.9627 -7.1250 0.0000 -0.0000 -11.0334 -7.1200 12.5372 -0.0000 0.0000 0.0000 81.7129 -15.2929 57.9043 -28.8192 39.8595 -10.6446 0.0000 -0.0000 -13.0963 24.1164 -58.1119 -20.8120 7.1250 -0.0000 -0.0000 -25.8283 9.2032 -155.9779
8.0647 15.3792 -29.2733 -172.8330 17.2009 -170.1220 0.0000 0.0000 0.0000 -17.8583 -17.3249 -11.3251 4.0625 12.2431 36.5976 2.3649 0.3748 -29.2648 1.5014 -7.7395 -21.9256 0.0000 0.0000 0.0000 29.9312 8.1496 -15.9455 -2.3830 -9.6221 27.7613 -0.2390 -16.0080 -24.8983 -0.1067 2.1066 -5.8005 -5.2035 1.7975 12.7002 -0.5323 1.5625 -1.5483 2.0486 1.0112 -8.9463 -3.3625 -0.0358 -6.1615 3.7921 0.0112 6.4875 1.8421 0.0813 3.1923 0.0000 0.0000 0.0000 -77.2649 6.8620 27.2948 22.6086 -33.6580 -6.9201 -0.0000 -0.0000 11.8165 13.3980 -37.0917 -8.1749 -7.1250 0.0000 -0.0000 -10.8814 -7.2723 12.3835 0.0000 0.0000 0.0000 81.8149 -14.9715 57.9562 -28.5105 39.5820 -10.4474 0.0000 -0.0000 -13.1699 24.6122 -57.9874 -21.2278 7.1250 -0.0000 -0.0000 -26.0144 9.3686 -155.8556
8.0935 15.3592 -29.2836 -173.0780 17.2250 -170.3990 0.0000 0.0000 0.0000 -18.0361 -17.0115 -11.3241 4.1325 12.3347 36.9265 2.3637 0.1052 -29.1695 1.5035 -7.7446 -21.9410 0.0000 0.0000 0.0000 29.8546 8.5141 -15.2201 -2.3093 -9.4825 27.3167 -0.2204 -16.3335 -25.1516 -0.0755 1.7729 -4.8784 -5.4385 1.8305 13.5001 -0.5268 1.4988 -1.9632 2.1751 1.0172 -9.8692 -3.3351 -0.0132 -6.1327 3.6458 0.0485 7.0180 1.7973 0.0988 3.3668 0.0000 0.0000 0.0000 -77.2870 7.7052 27.0781 22.5886 -33.6358 -6.9090 -0.0000 -0.0000 11.6181 13.5658 -36.9540 -8.2537 -7.1250 0.0000 -0.0000 -10.7761 -7.1663 12.2422 0.0000 0.0000 0.0000 81.8004 -15.5002 58.1517 -28.3019 39.3927 -10.3147 0.0000 -0.0000 -13.2220 25.1140 -58.0391 -21.6866 7.1250 -0.0000 -0.0000 -26.1490 9.3496 -155.6853
8.1186 15.3458 -29.3194 -173.0930 17.3034 -170.4990 0.0000 0.0000 0.0000 -18.0345 -16.6529 -11.2881 4.2046 12.4279 37.2628 2.3411 0.0093 -28.9981 1.6463 -8.0869 -22.9784 0.0000 0.0000 0.0000 29.9608 8.6630 -14.5469 -2.2371 -9.3433 26.8753 -0.2285 -16.4565 -25.3763 -0.0648 1.6425 -4.5185 -5.2601 1.8561 13.2017 -0.4762 1.5848 -1.9549 2.1173 1.0454 -9.6892 -3.0046 0.3473 -5.7792 3.2204 0.5292 6.8864 1.6113 0.3272 3.2300 0.0000 -0.0000 0.0000 -77.3896 7.9023 26.8487 22.4748 -33.5095 -6.8462 -0.0000 -0.0000 11.5172 13.6398 -36.8449 -8.2791 -7.1250 0.0000 -0.0000 -10.7238 -7.0722 12.1654 0.0000 -0.0000 0.0000 81.7631 -15.4193 58.1897 -27.9623 39.0815 -10.0999 0.0000 -0.0000 -13.4602 25.1548 -57.9922 -21.7130 7.1250 -0.0000 -0.0000 -26.1752 9.4011 -155.6848
8.1468 15.3455 -29.3566 -173.2490 17.4004 -170.6590 0.0000 0.0000 0.0000 -18.1558 -16.2271 -11.3294 4.2841 12.5292 37.6308 2.3211 -0.2148 -28.8024 1.7094 -8.2325 -23.4227 0.0000 0.0000 0.0000 29.9240 8.7641 -13.8989 -2.1712 -9.2140 26.4670 -0.2352 -16.6129 -25.6311 -0.0688 1.6918 -4.6546 -5.1349 1.8910 12.6833 -0.5291 1.6886 -1.7587 1.9836 1.0748 -9.1747 -3.5363 0.0249 -6.4138 3.5556 0.1298 7.3428 1.8151 0.1323 3.5318 -0.0000 0.0000 0.0000 -77.4451 7.8732 26.4507 22.4620 -33.4952 -6.8390 -0.0000 -0.0000 11.6389 13.4858 -36.8158 -8.1779 -7.1250 0.0000 -0.0000 -10.8020 -7.0173 12.2481 -0.0000 0.0000 0.0000 81.9561 -15.0352 58.0008 -27.5235 38.6738 -9.8245 0.0000 -0.0000 -13.6680 24.9057 -57.7772 -21.4445 7.1250 -0.0000 -0.0000 -26.1664 9.6081 -155.8185
8.1736 15.3441 -29.3866 -173.2160 17.4768 -170.7390 0.0000 0.0000 0.0000 -18.0309 -15.7654 -11.4641 4.3584 12.6226 37.9717 2.2897 -0.5575 -28.4998 1.7338 -8.2880 -23.5924 0.0000 0.0000 0.0000 30.0993 8.9337 -13.3184 -2.1083 -9.0881 26.0715 -0.1840 -17.0033 -25.7050 -0.0895 1.9301 -5.3124 -4.9840 1.8866 12.6763 -0.4878 1.7046 -1.8539 1.9382 1.0780 -9.2723 -2.9763 0.4745 -5.9934 2.8975 0.7269 7.3081 1.5162 0.4161 3.4089 -0.0000 0.0000 0.0000 -77.5787 8.3864 25.8232 22.5677 -33.6126 -6.8975 -0.0000 -0.0000 11.8535 13.2868 -36.8314 -8.0573 -7.1250 0.0000 -0.0000 -10.9093 -6.9985 12.3710 -0.0000 0.0000 0.0000 82.0530 -15.0665 57.9958 -27.2291 38.3968 -9.6411 0.0000 -0.0000 -13.7373 25.5234 -57.7384 -21.9870 7.1250 -0.0000 -0.0000 -26.3635 9.6914 -155.6358
8.1996 15.3367 -29.4091 -173.2420 17.5421 -170.8520 0.0000 0.0000 0.0000 -17.9242 -15.3208 -11.6126 4.4472 12.7329 38.3766 2.2641 -1.2826 -28.1294 1.5560 -7.8726 -22.3279 0.0000 0.0000 0.0000 30.2333 9.2077 -12.7779 -2.0537 -8.9770 25.7233 -0.0873 -17.5760 -25.6510 -0.0980 2.0183 -5.5563 -4.8844 1.8935 12.6776 -0.4597 1.7306 -1.8648 1.9067 1.0860 -9.2842 -3.4595 0.1840 -6.6192 3.2001 0.3714 7.8169 1.7027 0.2423 3.7255 -0.0000 -0.0000 0.0000 -77.6739 8.5481 25.2900 22.4689 -33.5029 -6.8429 -0.0000 -0.0000 11.8902 13.4043 -36.9536 -8.1531 -7.1250 0.0000 -0.0000 -10.8615 -7.1382 12.3380 -0.0000 -0.0000 0.0000 82.1108 -14.8738 58.0506 -26.9024 38.0859 -9.4388 0.0000 -0.0000 -13.8919 26.4296 -57.8188 -22.8158 7.1250 -0.0000 -0.0000 -26.6080 9.6662 -155.3300
8.2322 15.3371 -29.4577 -173.5420 17.7041 -171.2040 0.0000 0.0000 0.0000 -18.2330 -14.7220 -11.4475 4.5467 12.8544 38.8257 2.2735 -2.1621 -27.9618 1.2463 -7.0782 -19.9474 0.0000 0.0000 0.0000 30.0752 9.1447 -11.9746 -2.0026 -8.8716 25.3944 -0.1002 -17.6178 -25.8149 -0.0738 1.7520 -4.8207 -4.9331 1.9804 12.3870 -0.5451 1.8541 -1.7829 1.8260 1.1410 -9.0344 -3.2579 0.4873 -6.2319 2.9326 0.7755 7.7199 1.5901 0.4365 3.5980 0.0000 -0.0000 0.0000 -77.6797 8.6959 25.0407 22.2782 -33.2900 -6.7379 -0.0000 -0.0000 11.8752 13.5331 -36.9477 -8.2321 -7.1250 0.0000 -0.0000 -10.7926 -7.1545 12.2597 0.0000 -0.0000 0.0000 82.2650 -14.8311 57.9550 -26.4782 37.6770 -9.1784 0.0000 -0.0000 -14.0640 26.9596 -57.8389 -23.2962 7.1250 -0.0000 -0.0000 -26.7574 9.6774 -155.1583
8.2615 15.3415 -29.4831 -173.4900 17.7842 -171.1700 0.0000 0.0000 0.0000 -17.9653 -14.0698 -11.9436 4.6706 13.0030 39.3796 2.2122 -2.7979 -27.4223 1.2501 -7.0887 -19.9783 0.0000 0.0000 0.0000 30.2624 9.4421 -11.5455 -1.9679 -8.7988 25.1681 -0.1454 -17.5866 -26.1480 -0.0398 1.2871 -3.5391 -4.7492 2.0638 12.2820 -0.5098 1.9958 -1.9091 1.7317 1.2028 -9.1159 -2.8195 0.4892 -6.2359 2.1614 0.8087 8.1249 1.2604 0.4357 3.7375 -0.0000 -0.0000 0.0000 -77.7594 9.0120 24.7673 22.1544 -33.1511 -6.6701 -0.0000 -0.0000 12.0386 13.6299 -36.8999 -8.2834 -7.1250 0.0000 -0.0000 -10.7356 -7.1244 12.1878 -0.0000 -0.0000 0.0000 82.4151 -14.9642 57.7353 -26.0677 37.2755 -8.9286 0.0000 -0.0000 -14.1059 27.2414 -57.8096 -23.5429 7.1250 -0.0000 -0.0000 -26.8497 9.7256 -155.0773
8.2894 15.3443 -29.5099 -173.4220 17.8753 -171.2320 0.0000 0.0000 0.0000 -17.7171 -13.2615 -12.3912 4.8172 13.1749 40.0268 2.1042 -3.0656 -26.6622 1.6283 -8.0446 -22.8496 0.0000 0.0000 0.0000 30.4608 9.5487 -11.1120 -1.9423 -8.7448 25.0003 -0.1793 -17.5724 -26.4055 -0.0244 1.0083 -2.7716 -4.5556 2.1192 12.1600 -0.4801 2.1084 -1.8825 1.6361 1.2455 -9.0171 -3.4511 0.1664 -6.5197 2.6704 0.3974 8.2406 1.5287 0.2344 3.8516 0.0000 0.0000 0.0000 -77.8648 9.1605 24.3571 22.0455 -33.0285 -6.6107 -0.0000 -0.0000 12.0966 13.8538 -36.9362 -8.4299 -7.1250 0.0000 -0.0000 -10.6216 -7.1988 12.0660 0.0000 0.0000 0.0000 82.5243 -14.8336 57.6405 -25.6871 36.8980 -8.6991 0.0000 -0.0000 -14.2857 27.0547 -57.5996 -23.3267 7.1250 -0.0000 -0.0000 -26.8636 9.9350 -155.1901
8.3156 15.3481 -29.5394 -173.6550 18.0140 -171.3480 0.0000 0.0000 0.0000 -17.7493 -12.5119 -13.0073 5.0217 13.4082 40.9165 1.9801 -3.6686 -25.7147 1.8033 -8.4437 -24.0701 0.0000 0.0000 0.0000 30.3297 9.5739 -10.7212 -1.9038 -8.6628 24.7460 -0.2052 -17.5432 -26.5759 -0.0132 0.7413 -2.0372 -4.6578 2.2159 12.4688 -0.5288 2.1905 -2.1846 1.6070 1.3004 -9.5357 -3.2058 0.4124 -6.3816 2.4111 0.7334 8.5559 1.4175 0.4005 3.9224 -0.0000 0.0000 0.0000 -77.9378 9.8625 24.1129 22.0638 -33.0491 -6.6206 -0.0000 -0.0000 11.9634 13.8083 -36.8770 -8.3901 -7.1250 0.0000 -0.0000 -10.6384 -7.1328 12.0750 -0.0000 0.0000 0.0000 82.5972 -15.2270 57.5893 -25.3989 36.6090 -8.5267 0.0000 -0.0000 -14.5199 27.0798 -57.3050 -23.2809 7.1250 -0.0000 -0.0000 -26.9674 10.2464 -155.2604
